<svg width="177" height="38" viewBox="0 0 177 38" fill="none" xmlns="http://www.w3.org/2000/svg">
<g id="Layer_1" clip-path="url(#clip0_126_2694)">
<path id="Vector" d="M29.9732 26.3901C28.9051 24.6322 27.5973 23.1452 26.0544 21.9256C27.2032 20.955 28.1895 19.7712 29.0122 18.3729C30.4364 15.9511 31.1496 12.9217 31.1508 9.28718V0.5H19.5039V8.58979C19.5039 10.6566 19.2712 12.3315 18.8091 13.6133C18.3459 14.8963 17.6604 15.8312 16.7524 16.4191C15.8444 17.0069 14.6957 17.3009 13.3061 17.3009H11.6491L11.6503 0.5H0.00345672L0 37.3548L11.6468 37.2372V26.3336H13.3037C14.8708 26.3336 16.2155 26.744 17.3377 27.5636C18.46 28.3843 19.3046 29.5508 19.875 31.0644C20.4442 32.579 20.7299 34.2977 20.7288 36.2228V37.3444L32.3756 37.3455V35.5288C32.3756 32.073 31.5748 29.0264 29.9732 26.3889" fill="#F25A29"/>
<path id="Vector_2" d="M146.118 23.8967C146.118 24.4396 145.679 24.8788 145.136 24.8788C144.593 24.8788 144.154 24.4384 144.154 23.8967C144.154 23.3549 144.593 22.9146 145.136 22.9146C145.679 22.9146 146.118 23.3549 146.118 23.8967Z" fill="white"/>
<path id="Vector_3" d="M57.983 19.4633C56.8688 17.5878 55.3202 16.1342 53.3372 15.1002C51.353 14.0674 49.1119 13.551 46.6127 13.5498C44.1123 13.5498 41.8574 14.0662 39.8468 15.0991C37.8361 16.1319 36.2737 17.5728 35.1594 19.4206C34.0452 21.2696 33.4875 23.3894 33.4875 25.7802C33.4875 28.1179 33.9968 30.1628 35.0154 31.9161C36.034 33.6694 37.4328 35.0227 39.213 35.9737C40.9921 36.9247 42.9831 37.4007 45.1839 37.4019C47.2211 37.4019 48.9736 36.9673 50.4416 36.0982C51.0868 35.7155 51.648 35.2751 52.1262 34.776L52.3981 37.3546L59.6526 37.4814C59.6526 36.9915 59.6526 35.8884 59.6526 35.3858V33.8976C59.6526 32.5662 59.6526 31.2337 59.6526 29.9023C59.6526 28.5709 59.6526 27.2384 59.6526 25.907C59.6526 23.4886 59.0961 21.3399 57.9818 19.4644M50.4819 28.066C50.1005 28.7738 49.5716 29.3305 48.8918 29.7374C48.212 30.1455 47.4515 30.3484 46.6092 30.3484C45.7128 30.3484 44.9247 30.1444 44.246 29.7363C43.5662 29.3282 43.0373 28.7576 42.6571 28.0234C42.2768 27.2891 42.0867 26.4476 42.0867 25.4954C42.0867 24.5444 42.2768 23.7018 42.6571 22.9675C43.0373 22.2344 43.5673 21.6569 44.2472 21.235C44.9258 20.8142 45.7001 20.6033 46.5701 20.6033C47.4124 20.6033 48.1797 20.8142 48.8722 21.235C49.5647 21.6569 50.1017 22.2413 50.4819 22.9883C50.8622 23.7364 51.0523 24.5986 51.0523 25.5773C51.0523 26.5294 50.8622 27.3582 50.4819 28.0637" fill="#F25A29"/>
<path id="Vector_4" d="M64.1359 25.3493C64.1359 22.7557 64.6406 20.5736 65.6477 18.803C66.6547 17.0324 68.0051 15.7149 69.6989 14.8503C71.3916 13.987 73.2593 13.5535 75.3023 13.5547C77.0364 13.5547 78.6461 13.7714 80.129 14.2037C81.6119 14.6371 82.884 15.2849 83.9487 16.1495L80.4228 22.0053C80.3952 21.9776 80.3733 21.9638 80.3594 21.9638C80.3456 21.9638 80.3237 21.9499 80.2961 21.9223C79.6808 21.5868 79.0862 21.316 78.5124 21.1062C77.9386 20.8964 77.2737 20.7926 76.519 20.7926C75.3437 20.7926 74.4415 21.1131 73.8113 21.754C73.181 22.3961 72.8664 23.3851 72.8664 24.7245V37.4828H64.1348V25.3516L64.1359 25.3493Z" fill="#F25A29"/>
<path id="Vector_5" d="M137.726 13.4831H146.456L146.455 24.8212C146.455 27.4241 145.937 29.6776 144.902 31.5819C143.866 33.4862 142.404 34.9479 140.515 35.9692C138.627 36.9905 136.465 37.5012 134.031 37.5012C131.568 37.5012 129.4 36.9893 127.525 35.968C125.65 34.9467 124.188 33.4839 123.14 31.5796C122.091 29.6765 121.566 27.4229 121.567 24.8189V13.4819H130.34V26.1204C130.339 26.933 130.492 27.6466 130.8 28.2621C131.107 28.8788 131.541 29.3618 132.101 29.7111C132.659 30.0615 133.304 30.2356 134.032 30.2367C134.731 30.2367 135.36 30.0627 135.92 29.7122C136.48 29.363 136.92 28.88 137.243 28.2633C137.565 27.6477 137.726 26.9342 137.726 26.1215V13.4831Z" fill="#1B3059"/>
<path id="Vector_6" d="M117.474 16.0237H117.406V0.5H108.34H105.761V16.0237H97.9437V0.5H86.2969H86.1125V37.3548H86.2969V37.5H97.9437V25.2132H105.761V37.5H117.406V37.3548V25.2132H117.474V16.0237Z" fill="#1B3059"/>
<path id="Vector_7" d="M169.037 21.4843C166.883 17.7921 162.145 16.546 158.455 18.7016C154.764 20.8572 153.519 25.5972 155.673 29.2894C157.828 32.9815 162.566 34.2276 166.255 32.072C169.946 29.9164 171.192 25.1765 169.037 21.4854M167.273 22.0295C167.698 22.0722 168.008 22.4514 167.965 22.8768C167.923 23.3021 167.544 23.6122 167.118 23.5696C166.693 23.5269 166.383 23.1477 166.426 22.7223C166.469 22.297 166.848 21.9869 167.273 22.0295ZM161.058 20.6497C160.667 20.478 160.488 20.0215 160.661 19.6296C160.833 19.2388 161.289 19.0613 161.681 19.233C162.072 19.4048 162.25 19.8613 162.077 20.252C161.906 20.6428 161.449 20.8215 161.058 20.6497ZM156.337 25.1799C156.018 24.8952 155.99 24.4064 156.275 24.0871C156.559 23.7678 157.048 23.7402 157.367 24.0249C157.686 24.3096 157.714 24.7984 157.429 25.1177C157.145 25.437 156.656 25.4646 156.337 25.1799ZM159.577 27.0081C158.683 25.4762 159.201 23.5016 160.734 22.607C162.265 21.7125 164.239 22.2313 165.133 23.7632C166.027 25.2952 165.509 27.2698 163.976 28.1643C162.445 29.0588 160.471 28.5401 159.577 27.007M159.219 30.7291C159.003 30.3602 159.128 29.8865 159.496 29.6709C159.865 29.4553 160.339 29.5798 160.554 29.9487C160.77 30.3176 160.645 30.7914 160.276 31.0069C159.908 31.2225 159.434 31.098 159.219 30.7291ZM165.524 29.3885C165.433 28.9712 165.698 28.5585 166.115 28.4686C166.532 28.3776 166.944 28.6427 167.035 29.06C167.126 29.4773 166.861 29.8899 166.444 29.981C166.027 30.0721 165.615 29.8069 165.525 29.3896" fill="#F25A29"/>
<path id="Vector_8" d="M165.915 15.9717C169.067 17.3745 171.434 20.2102 172.247 23.5566C172.252 23.575 172.269 23.5865 172.287 23.5842L174.053 23.3018C173.307 19.084 170.339 15.6351 166.402 14.208L165.864 15.861C165.85 15.9048 165.872 15.9521 165.914 15.9717" fill="#F25A29"/>
<path id="Vector_9" d="M162.133 12.6923V0.57373H150.487V20.8812C152.279 16.1585 156.806 12.7833 162.133 12.6923Z" fill="#1B3059"/>
<path id="Vector_10" d="M176.635 23.0635C176.821 23.0335 176.963 22.8859 177 22.7038C175.972 17.4082 172.148 13.112 167.125 11.4175C167.083 11.4026 167.035 11.4268 167.022 11.4694C166.851 11.9801 165.918 14.8238 165.918 14.8238L165.632 15.6976C165.565 15.9005 165.665 16.1195 165.861 16.2059C168.891 17.5454 171.172 20.2255 171.966 23.4681C172.011 23.6514 172.189 23.7689 172.376 23.7401L173.254 23.6006L176.635 23.0635Z" fill="#F25A29"/>
<path id="Vector_11" d="M174.231 25.0623C174.231 25.0404 174.23 25.0185 174.229 24.9966C174.225 24.8905 174.221 24.7856 174.215 24.6807C174.215 24.6669 174.213 24.6531 174.213 24.6381C174.209 24.592 174.207 24.5458 174.204 24.4997H174.202C174.189 24.3176 174.172 24.1366 174.151 23.9557L172.393 24.2369C172.356 24.2427 172.321 24.2461 172.285 24.2461C171.969 24.2461 171.684 24.0283 171.606 23.7136C170.84 20.5644 168.613 17.8958 165.648 16.5759C165.294 16.4192 165.118 16.0238 165.238 15.6572L165.777 14.0008C164.694 13.6757 163.546 13.5005 162.356 13.5005C155.794 13.5005 150.475 18.8214 150.475 25.3862C150.475 31.9509 155.794 37.2719 162.356 37.2719C168.918 37.2719 174.237 31.9509 174.237 25.3862C174.237 25.2767 174.235 25.1695 174.232 25.0623M166.257 32.0708C162.566 34.2264 157.828 32.9803 155.674 29.2881C153.52 25.596 154.765 20.856 158.456 18.7016C162.146 16.546 166.885 17.7921 169.038 21.4842C171.193 25.1764 169.947 29.9164 166.257 32.072" fill="#1B3059"/>
</g>
<defs>
<clipPath id="clip0_126_2694">
<rect width="177" height="37" fill="white" transform="translate(0 0.5)"/>
</clipPath>
</defs>
</svg>
