<svg width="18" height="24" viewBox="0 0 18 24" fill="none" xmlns="http://www.w3.org/2000/svg">
<path d="M13.8765 0.101991C14.0233 0.187099 14.1369 0.319476 14.1988 0.477498C14.2606 0.635519 14.267 0.809843 14.217 0.971991L11.5155 9.74999H16.5C16.6465 9.74993 16.7898 9.79277 16.9122 9.87322C17.0346 9.95366 17.1308 10.0682 17.1888 10.2027C17.2469 10.3372 17.2643 10.4857 17.2389 10.63C17.2136 10.7742 17.1465 10.9079 17.046 11.0145L5.04599 23.7645C4.92988 23.888 4.77538 23.9685 4.60765 23.9929C4.43993 24.0173 4.26889 23.9842 4.1224 23.8989C3.97591 23.8137 3.86262 23.6813 3.80098 23.5234C3.73935 23.3655 3.73301 23.1914 3.78299 23.0295L6.48449 14.25H1.49999C1.35351 14.25 1.21022 14.2072 1.0878 14.1268C0.965388 14.0463 0.86921 13.9318 0.811142 13.7973C0.753074 13.6628 0.735658 13.5143 0.761044 13.37C0.78643 13.2257 0.853507 13.0921 0.953994 12.9855L12.954 0.235491C13.07 0.11219 13.2242 0.0317441 13.3917 0.00723405C13.5592 -0.017276 13.7301 0.015591 13.8765 0.100491V0.101991Z" fill="#FBFCFE"/>
</svg>
